<svg xmlns="http://www.w3.org/2000/svg" viewBox="0 0 12813.74 2009.52"><defs><style>.cls-1{fill:#fff;}</style></defs><g id="Calque_2" data-name="Calque 2"><g id="Coins_pliés" data-name="Coins pliés"><path class="cls-1" d="M9044.73,538.75v-.19C9044.68,241.15,8803.54,0,8506.07,0s-538.66,241.2-538.66,538.66,241.16,538.66,538.66,538.66a536,536,0,0,0,250.5-62c11.78-7.43,23.7-14.62,36.07-21.13C8943.9,898.84,9044.7,730.77,9044.73,538.75Zm-732,249.64v-504h378v84.76h-272.6V494.41h214.57v80.94H8418.09V703.63h283.29v84.76Z"/><path class="cls-1" d="M9044.73,539.34c0,214.42,123.35,416.18,322.62,495.35,169.51,67.35,334.08,50.38,466.51-19.35,11.8-7.44,23.75-14.64,36.14-21.16,151.23-95.36,252-263.43,252-455.43v-.19a2.78,2.78,0,0,1-.51-1.93C10130.84,311.42,9943,.21,9566.83.25c-289.93,0-522,246.44-522.1,538.31v.78ZM9363,284.42h123.7l101.56,169.52,103.09-169.52h114.54L9644,530.3l171,258.09H9689.85l-110-178.68L9471.46,788.39H9350.81l173.34-254.27Z"/><path class="cls-1" d="M10122.05,538.75c.05,297.47,241.2,538.56,538.66,538.56a535.94,535.94,0,0,0,250.48-62c11.79-7.43,23.72-14.62,36.1-21.14,151.22-95.34,252-263.37,252.08-455.35,0-.06,0-.12,0-.18l-.43-.19h.44C11199.27,241.1,10958.14,0,10660.71,0s-538.61,241.15-538.66,538.56h.45Zm341.8-254.33h211.51q58,0,99.27,19.47t63.77,55.74q22.5,36.28,22.52,87.44t-22.52,87.43q-22.54,36.27-63.77,55.74t-99.27,19.47h-106.14V788.39h-105.37Z"/><path class="cls-1" d="M10730.34,506.24Q10754,486,10754,447.07q0-39.7-23.67-59.57t-71-19.85h-90.11V526.48h90.11Q10706.67,526.48,10730.34,506.24Z"/><path class="cls-1" d="M9043.12,932.2a536,536,0,0,0-250.48,62c-11.78,7.42-23.7,14.61-36.07,21.13-151.24,95.34-252,263.39-252.11,455.34v.37c.1,297.43,241.23,538.48,538.66,538.48s538.66-241.15,538.66-538.67S9340.62,932.2,9043.12,932.2Zm186.14,790.93h-371.1v-504h105.38v419.21h265.72Z"/><path class="cls-1" d="M10659.1,1470.67c-.1-297.37-241.23-538.47-538.67-538.47a535.74,535.74,0,0,0-250.43,62c-11.8,7.43-23.74,14.64-36.14,21.16-151.27,95.38-252.08,263.49-252.08,455.51,0,297.52,241.16,538.67,538.66,538.67s538.56-241,538.66-538.48c0-.06,0-.13,0-.19S10659.1,1470.73,10659.1,1470.67Zm-323.88,139.45q-29.41,58-83.62,89.34t-129.05,31.31q-74.83,0-129.43-31.31t-84-89.34q-29.41-58-29.4-139t29.4-139q29.39-58,84-89.34t129.43-31.31q74.84,0,129.05,31.31t83.62,89.34q29.39,58,29.39,139T10335.22,1610.12Z"/><path class="cls-1" d="M10194.33,1317.66q-29.77-19.85-71.78-19.85t-72.15,19.85q-30.18,19.86-45.82,58.8t-15.65,94.68q0,55.75,15.65,94.69t45.82,58.8q30.15,19.86,72.15,19.85t71.78-19.85q29.77-19.85,45.44-58.8t15.65-94.69q0-55.73-15.65-94.68T10194.33,1317.66Z"/><path class="cls-1" d="M11211.53,1303.15h-106.14v146.61h106.14q44.28,0,66-17.94t21.76-55.36q0-37.41-21.76-55.36T11211.53,1303.15Z"/><path class="cls-1" d="M11736.42,1470.67c-.1-297.37-241.22-538.47-538.66-538.47a535.91,535.91,0,0,0-250.47,62c-11.79,7.43-23.72,14.62-36.1,21.14-151.23,95.36-252,263.39-252.09,455.34v.37c.1,297.43,241.23,538.48,538.66,538.48s538.56-241,538.66-538.48v-.37Zm-418,252.46-118.33-193.19h-94.72v193.19h-103.85v-504h222.21q85.51,0,134.39,41.23t48.87,110.72q0,74.09-48.87,113.4-24.3,19.54-57.46,29.37l136.11,209.25Z"/><path class="cls-1" d="M12275.09,932.2c-297.44,0-538.57,241.1-538.67,538.47,0,.06,0,.12,0,.18s0,.13,0,.19c.1,297.43,241.23,538.48,538.67,538.48s538.65-241.15,538.65-538.67S12572.57,932.2,12275.09,932.2Zm199,790.93h-388.67v-504h378v84.76h-272.6v125.23h214.57v80.94h-214.57v128.28h283.29Z"/><path class="cls-1" d="M579.36,1098.83V698.88H257.47c0,37.16-.84,72.29.17,107.36,2.27,79.62,5.94,159.2,8.09,238.82,1.6,58.8-1.11,58.43-62.12,51.44-33.83-3.87-68.69,1.6-103.09,2.22-29,.52-58,.11-90.41.11,0-52.18,0-101.52,0-150.87q0-181,0-362c0-20.53.37-41.07-.24-61.58C7,425.31,4.43,326.26.13,227.28c-1.2-27.57,5.79-37.64,35.6-37.13,66.9,1.14,133.87-2,200.8-3.52,22.67-.52,26.4,13.25,26,31.81q-2.88,137.4-5.09,274.83c-.2,11.77,0,23.55,0,37.68H575.05c0-67.1.73-133.62-.28-200.12-.57-37.64-3.67-75.26-6.24-112.85-1.26-18.44,3.92-27.33,24.92-27.44,70.19-.35,140.38-2.43,210.56-4.06,24.66-.58,20.23,17.16,20.24,31.64.14,131.81-1.66,263.65.56,395.42,2.44,145.36,8.19,290.67,13.19,436,1.6,46.66-.42,49.8-39,49.45-62.41-.57-124.83-.15-187.25-.14Z"/><path class="cls-1" d="M1624.6,899.65c-4.14,54.69-6.78,99.62-11.57,144.32-.94,8.75-8.44,21.34-15.94,24.17-164.91,62.09-329,70.14-486.18-21.12-79.79-46.31-117.55-124.2-131.48-212.9-15.79-100.48-7-198.4,49.21-286.14,60.39-94.32,151.73-137.8,261.29-144.6,67.18-4.17,134.21-1.35,196.75,28.31,96.49,45.75,136.81,130.14,153.31,228.67,6.71,40.12,5.87,81.46,9,122.2,1.4,18.19-5.84,24.38-24.2,24.58-87.54.94-175.06,3.43-262.59,4.67-50.74.73-101.49.14-151.07.14-9.25,48.58,34.94,106.34,79.87,125,98,40.77,192.09,22,285.06-17.34C1589.54,914,1603.1,908.5,1624.6,899.65ZM1204.78,672.16h215.48c9.31-72.21-28.5-125-92.44-130.15C1279.18,538.1,1210.07,572.92,1204.78,672.16Z"/><path class="cls-1" d="M2313.24,591.13c-16.63-7.65-29.89-13.07-42.52-19.69-52.76-27.62-108-42.72-168-34.18-9.4,1.34-20.82,2.86-27.09,8.76-14,13.22-34.13,28.63-35.22,44.3-.95,13.73,17.73,34.83,32.89,42.43,32.55,16.32,69.24,24.18,102.73,38.91,43.14,19,88.53,36.11,126.39,63.18,96.42,68.95,87.21,263.89-39.45,329.83-89.64,46.67-186.14,53.91-283.56,44.77-53-5-104.88-22.6-157.23-34.66-17.4-4-23.45-12.56-20.78-32.45,4.42-32.95,3.19-66.64,5.07-100,.68-12.24,3.42-24.37,5.85-40.8,33.89,17.79,61.57,38.54,92.64,47.18,46,12.81,94.37,17.91,142,24.27,10.74,1.43,22.77-5,33.92-8.62,25.74-8.46,47.67-26.48,43.73-52.68-2.84-18.83-20.41-41.82-37.74-50.79-38-19.68-80.82-29.91-120.21-47.27-34.22-15.09-71.08-29.36-98.74-53.25-106.93-92.34-81.39-260.68,48.72-321.68,37.25-17.46,79.51-28.74,120.48-32.91,91.71-9.35,183.43-4.68,271.9,25.07,8.39,2.82,19.56,15.85,19.06,23.46C2325.21,497.07,2319.2,539.59,2313.24,591.13Z"/><path class="cls-1" d="M4141,758.52c1,80.45-12.46,156.41-59.86,224.07-46.58,66.49-110.95,102.64-189.88,116.4-83.36,14.53-165,11.11-244-21.23-85.48-35-139.95-98.57-165.58-186.17-27-92.14-25.89-185.38,2.9-276.43C3515,519,3582.68,457,3679,428.21c124.74-37.22,245.21-32.55,353.46,48.59,64.29,48.2,90.63,118.52,102.5,194.8C4139.43,700.2,4139.15,729.52,4141,758.52Zm-525,22c4.89,23.57,10.4,69.76,24.38,113.23,23.88,74.29,89.22,112.7,177.6,110.91,70.55-1.43,133.7-47.67,154-117.07,26-88.87,23.33-178.39-4.62-266.4-20.12-63.36-66-101-131.13-109.81s-124.73,5.49-168.29,60.13C3624.34,626.36,3620.42,692,3616.06,780.56Z"/><path class="cls-1" d="M3062,1116.26c-63.48-13-124.45-25.08-185.15-38.31-23.59-5.13-38.19-16.56-31.1-45.73,5.26-21.63,5-44.81,5.51-67.33.61-25.6,11.28-27.76,30.27-15.16,61.52,40.83,129.35,59.32,202.52,50,26.79-3.42,55.15-12.82,77.71-27.35,55.2-35.56,52-100.52-7.37-127.67-50.74-23.22-105-38.94-158.21-56.62-66.93-22.25-125.92-53.9-149.87-125.86-31.09-93.43,17.59-191.31,113.1-227.38,113.09-42.72,226.39-33.22,338.57,3.88,9.09,3,18.71,19.49,19.23,30.15,1.15,23.36-3.52,47-5.56,70.53-1.73,19.81-8.81,25.24-29.71,17.87-48.33-17-96.9-36.25-147-44.5-44.33-7.29-90.55.23-125.6,35.87-33.67,34.23-29.22,78.62,14.53,98.16,45,20.07,92.85,33.82,139.87,49.06,57.85,18.76,116.62,36.5,155.3,87.57,76.31,100.75,31.66,245.52-94.05,294.07C3173.7,1097.28,3117.18,1103.59,3062,1116.26Z"/><path class="cls-1" d="M4169.94,1104.41c10-31.28,16.62-64.12,30.44-93.6,113.36-241.87,228.09-483.1,342.34-724.56,23.5-49.69,46-99.84,70.39-149.1,9.46-19.15,21.56-37.32,34.49-54.39,44.31-58.47,126.65-60.19,175.9-33.57,57.49,31.07,83.38,103,57.64,174.29-18.2,50.4-43,98.49-66,147.08Q4634.08,753.24,4452,1135.45c-11,23-26.29,44.4-42.14,64.55-39.23,49.89-102.29,51.48-151,35.74C4204.22,1218.09,4176.46,1170.13,4169.94,1104.41Zm146.1,89.4c2.93-.58,15.31.71,21.22-4.85,22.1-20.78,49.1-40.4,61.75-66.5q195.22-402.8,385.79-807.83c21-44.46,41.73-90.26,53.14-137.71,12-49.78-29.81-92.59-81.27-93.69-50.51-1.08-75.1,32.31-93.8,71.54q-181.4,380.6-361.78,761.66c-24.42,51.54-49.41,102.93-70.81,155.73C4206.41,1131.09,4248.54,1193.78,4316,1193.81Z"/><path class="cls-1" d="M4686.84,1242.28c-108.55,0-168.57-104.38-119.23-210.25,73.74-158.2,149.29-315.55,223.65-473.47,63.29-134.43,125.16-269.54,189.59-403.43,14.25-29.62,35.66-56,55.39-82.75,34-46,112.82-46.72,149.19-30.47,52.63,23.5,79.63,64,81.09,124.4,1.55,63.55-32,113.34-56.6,166.18-96,206-194.43,410.88-292.16,616.08-33.84,71-66.94,142.48-102.93,212.43C4788.68,1211.82,4750,1247.35,4686.84,1242.28ZM5216.67,186.79c.75-70.32-37.74-107-92.34-103.41-47.15,3.11-68.57,38.51-86.36,74.06-37.57,75.08-72,151.74-107.85,227.67Q4797,666.95,4663.82,948.82c-21.44,45.67-42.62,91.74-59.45,139.2-12.91,36.4,12.25,83.3,47.31,99.65,34.45,16.06,81.25,3.71,104.14-28.76a344.33,344.33,0,0,0,29.75-49.91Q4984,691.7,5181.5,274C5196.93,241.28,5208.64,206.87,5216.67,186.79Z"/><path class="cls-1" d="M6144.43,915.79c0-65.62-.1-131.23,0-196.84.08-40.07,12.83-55.12,46.3-55.42s47.57,15,47.67,54.32c.27,108,.05,216.1.13,324.15,0,23.84-3.09,45.79-30.32,54.25-26.47,8.21-46.07-2.41-61.77-23.06q-81-106.55-162-213.11c-4.31-5.65-9.17-10.89-20-23.64,0,65.1,0,121.64,0,178.18,0,10.81.12,21.61,0,32.42-.45,34-14.89,51-43.85,51.77-32.6.81-51.24-17.15-51.55-52.22-.6-69.14-.18-138.3-.18-207.45,0-38.9.19-77.8-.07-116.69-.16-23.67,2.05-47.85,27.82-56.32,28.26-9.29,50.69.09,69.46,26.16,51.58,71.59,105.77,141.31,159,211.72,3.75,5,8,9.52,12.08,14.26Z"/><path class="cls-1" d="M5468.32,923.62c-22.71,0-42,.43-61.34-.11-24.44-.69-38.22-14.2-39.89-38-1.75-25.06,10.53-43.91,35.65-45.49,42.05-2.65,84.57-3.25,126.53-.06,27.5,2.09,38.12,23.68,39,50.84,3.79,118.84-59.75,197.62-179.85,211.76-95.7,11.28-191.23-49.19-218.28-157.62-29.94-120,21.79-235.95,127.15-274.3,68.45-24.91,135.83-14.82,199.54,19.08,10.22,5.45,19.24,14.07,27.16,22.73,17.58,19.25,18.3,42.22,4.16,62.22-15.35,21.7-38.09,15.75-58.88,7-25.5-10.79-50.52-22.71-76-33.49-38.78-16.39-96.73,19.2-113.51,53.18-31.46,63.74-23,148,23.93,189.14,33.45,29.34,72.84,31.38,112.16,15.08C5448.91,991.77,5469.37,966.74,5468.32,923.62Z"/><path class="cls-1" d="M5691.43,753.48v79.94c29.57,0,57.43-.47,85.27.12,35.22.75,56.34,17.47,57.09,44,.81,28.48-20.22,45.39-58.12,46-26.89.41-53.8.08-83.37.08v85c34.05,0,68.31-.23,102.56.07,34.68.3,47,11.64,47.2,42.56.23,32-10.65,42.4-46.31,42.62-49.75.3-99.51.51-149.25-.08-35.73-.42-51.55-15.94-51.69-51.28q-.63-158.62,0-317.27c.19-44.57,13.75-57.24,58.38-57.34,46.51-.11,93,.39,139.52-.16,26.78-.32,44.09,8.69,44.77,38.24s-14.41,46.43-44.74,47.28C5759.55,754.2,5726.32,753.48,5691.43,753.48Z"/><path class="cls-1" d="M6380.24,923.64v85c35.79,0,70.12-.26,104.45.08,30.45.3,46.3,14.58,46.49,40.94.21,30.58-13.35,44-46.32,44.2q-76.38.54-152.76,0c-32.7-.28-47.88-14.3-48.08-47.33q-1-165.39,0-330.79c.21-32.55,16.11-47.36,48.28-47.68,49.83-.49,99.67-.41,149.51,0,31.59.24,44.67,13.06,44.72,42.2,0,26.6-15.93,42.39-45.77,43.11-32.31.79-64.66.18-99.5.18v79.94c27.27,0,55-.36,82.79.09,37.26.61,59.23,18.22,58.46,46-.7,25.28-24.43,43.56-58,44C6437.61,923.93,6410.69,923.64,6380.24,923.64Z"/><path class="cls-1" d="M7014.43,923.64v85c35.63,0,69.86-.23,104.09.07,36,.3,49.3,12.89,48.55,45-.69,29.81-13,40-49.46,40.19-47.62.2-95.24.3-142.85,0-38.86-.27-54.77-14.19-55-51.57-.72-104.73-1-209.49.08-314.22.51-50.7,11.78-60.16,61.74-60.2,45.45,0,90.91-.37,136.35.14,32.56.37,44,11.91,43.87,42-.12,26.16-16.39,42.58-45,43.24-33.28.77-66.6.18-101.88.18v79.94c30,0,58.85-.33,87.72.08,35.26.49,53.86,15,54.48,41.77.74,31.12-17.51,47.24-55.18,48.3-14.06.4-28.13.07-42.2.07Z"/><path class="cls-1" d="M6719.8,931c29.37-78.65,54.63-149.36,82.57-219,7.07-17.61,19.68-38,35.36-45.62,12.44-6,39.59,0,49,10.6,10.25,11.52,14.91,37.23,9.36,52-42.62,113.71-88.36,226.25-133,339.19-7.9,20-20.55,31.43-43.74,30.9-24.17-.55-38.09-13.31-46.34-33.82q-37.93-94.34-75.07-189c-19.64-50-40.4-99.71-57.58-150.57-13.92-41.19,17.31-74.17,57.67-60.26,14.37,5,28,23.13,34.26,38.42,25.88,63.76,48.75,128.73,72.87,193.2C6708.42,905.88,6712.54,914.31,6719.8,931Z"/><path class="cls-1" d="M2522.82,758.43c-.26-48.17,32.71-81.48,80.78-81.61,47.87-.13,83.71,33.15,85.33,79.24,1.56,44.31-39.39,87.12-83.22,87C2557.86,842.91,2523.08,807.41,2522.82,758.43Z"/><path class="cls-1" d="M554.18,1404.22v82.43h99.64c-1.37-25.33-2.77-51.38-4.3-79.93H691.8V1614.2l-41.75,5.34c1.57-34.91,3-66.47,4.5-100.46H555.8v94.51l-39.67,4.91V1406Z"/><path class="cls-1" d="M946.52,1737.1l36.67-8.39v237.62c-35.55,0-73.19,5-108.74-1.48-32.14-5.84-42.72-36.74-39.94-85.45,1.82-31.87,24-59.33,55.9-66.31,17.61-3.85,36-4.44,56.11-6.74V1737.1Zm0,89.56c-26.93,13.81-50,20.24-65.09,34.84-16.17,15.62-16.87,41.1-1.2,58.77,9.08,10.25,26.56,16.83,40.62,17.5,8.19.39,23.32-13.33,24.49-22.13C948.65,1890.44,946.47,1864.51,946.47,1826.66Z"/><path class="cls-1" d="M2665.7,1629.13v57.13l-39.13,4v-227c31.43-1.52,65.1-7.8,97-2.86,17.37,2.69,39.42,21.55,45.79,38.26,10.44,27.36,16.14,63.38-11,84.29C2732.87,1602.68,2699.82,1612.72,2665.7,1629.13Zm-2.87-40.85c44.28,2.94,68.82-13.83,75.39-48,4.55-23.69-12.08-52.66-34.81-52.19-13.67.29-36.52,11.56-38.73,21.53C2659.09,1534.87,2662.83,1562.19,2662.83,1588.28Z"/><path class="cls-1" d="M3137,1728.82v237.25c-36.25,0-74,5-109.65-1.49-32.28-5.91-43-37.16-40.12-85.51,1.88-31.39,24.75-59.23,56.49-66.12,16.65-3.61,34-4.1,53.37-6.26v-69.43Zm-38,109.83c-47.85-3-70.55,13.09-75,50.22-3,24.92,14.54,48.53,37.61,50.66,26.84,2.47,37.27-8.93,37.38-41C3099.05,1879.4,3099,1860.24,3099,1838.65Z"/><path class="cls-1" d="M1525.31,1616.28V1406.8h134.27c.85,7.57,1.84,16.45,3.21,28.66h-97.07v58.64h84c2.71,26.75,2.71,26.77-30.08,26.86-17.13,0-34.26,0-54,0-.7,12.6-1.51,23-1.8,33.34s-.07,21-.07,34.94c28.09,0,52.81-1,77.37.6,7.13.46,13.79,8.2,20.66,12.6-6.72,4.61-13.31,13-20.19,13.21C1604.05,1617,1566.38,1616.28,1525.31,1616.28Z"/><path class="cls-1" d="M2439.93,1577.36c18.13,5.27,35.08,15.32,50.41,13.27,16.76-2.23,38.88-11.8,46.36-25.08,11.82-21-12.69-27.43-27.24-35-16.24-8.4-36.89-11.71-48.95-23.84-13-13.1-26.15-34.48-24.77-51.06,1.35-16.32,18.15-40.34,32.93-44.63,27.54-8,58.81-7,88-4.22,23.18,2.24,16,19.7,9.13,33.5-20.6-3.11-40.59-9.4-59.91-7.78-11.11.92-21.14,14.66-31.65,22.64,7.68,8.88,13.85,20.17,23.38,26.09,15.4,9.55,33,15.56,49.67,23.08,25.95,11.71,36.53,32.21,33.81,59.89-2.77,28.11-19.72,47.31-45.77,51.67s-53.69,2.89-80.2,0C2429.43,1613.08,2428.6,1596.84,2439.93,1577.36Z"/><path class="cls-1" d="M1453.11,1754.42v38.35c-20.36-4-39.38-11.69-57.41-9.83-13.23,1.37-25.15,15.32-37.65,23.66,8,8.85,14.62,20,24.39,26,15.42,9.5,33.12,15.24,49.58,23.13,28.52,13.67,38.27,37.64,32.06,67-6,28.26-25.6,44.79-54.5,47.11a368.37,368.37,0,0,1-61.51-.45c-25.88-2.28-35.29-15.81-23.94-40.59,19.94,5,38.77,14.18,56.79,12.8,14.35-1.1,27.71-15.1,41.51-23.38-8.73-11.71-15.62-25.72-26.69-34.49-11.43-9-26.77-13.37-40.67-19.09-31.47-13-39.65-37.8-34.07-68.37,5.3-29.09,27-40.13,53.83-41.52C1400.79,1753.36,1426.87,1754.42,1453.11,1754.42Z"/><path class="cls-1" d="M3374.76,1966.77V1814.89c34.61-1.54,70.87-5.92,106.76-3.85,27.39,1.58,35.14,26.36,36.59,49.76,1.8,29,2,58.38-.4,87.33-.65,7.87-13.2,14.75-20.28,22.09-6.7-7.37-18.45-14.28-19.18-22.2-2.48-26.76-1.09-53.89-1.11-80.87,0-18.22-8.16-29.49-27.28-27.77-17.46,1.57-35.17,4.53-34.67,29,.49,23.74-1,47.56.33,71.23C3417.25,1970.18,3401.91,1974.08,3374.76,1966.77Z"/><path class="cls-1" d="M3983.05,1543.41c10.17,51,38.81,59.8,109,31.57-8.84,17.4-11.69,33.93-19.83,37.14-33.16,13.1-68,13.54-99.26-6.12-27-17-30.26-46.22-28.87-74.33,2.53-51.57,31.54-75.37,85.31-73.33,45.92,1.73,62.5,23.59,61.93,85.07Zm1.35-39.54,5.68,10.28h62l4.38-9.16c-11.91-7.75-23.73-21.4-35.78-21.6S3996.5,1496.49,3984.4,1503.87Z"/><path class="cls-1" d="M2289.56,1544.62H2188.25c.76,49.3,26.38,57.6,95.31,34.13,8,26.24-4.76,37-28.72,40.6-78.35,11.65-124.39-32.54-107.42-103.28,10.69-44.57,46.22-65.71,96.44-57.39C2278.92,1464.5,2296,1494.87,2289.56,1544.62Zm-104.8-40,4.77,8.84h64.23l3.42-8.33c-11.5-7.8-23.16-22-34.46-21.71C2209.9,1483.75,2197.4,1497,2184.76,1504.64Z"/><path class="cls-1" d="M1371.7,1544.57H1266.78c6.08,50.85,28.59,57.62,98.7,33.45,5.78,31.68-11.18,40.87-39.26,42-72.84,2.84-104.14-25.3-100.29-91.68,2.79-48.25,37.18-74.3,92.29-69.9C1357.58,1461.54,1378.07,1492.71,1371.7,1544.57Zm-39-30.47,4.65-8.26c-10.88-8.07-22.28-23.24-32.5-22.48-13.94,1-27,14.21-40.39,22.17q2,4.29,4,8.57Z"/><path class="cls-1" d="M2960.2,1544.4H2854.78c6.06,50,36.33,59.72,104.86,38.19-6.83,10.78-11.56,28.23-20.85,31.13-34.7,10.8-71.54,13.67-101.33-12.57-28.75-25.33-26.23-60.89-18.31-93.4,9.81-40.32,49.68-58.24,96.24-48C2950.11,1467.4,2965.39,1494.51,2960.2,1544.4Zm-40.53-29.19,6.3-12c-13-7.11-26-19.85-38.85-19.6-10.94.2-21.6,15.32-32.38,23.85l5.24,7.74Z"/><path class="cls-1" d="M3897.25,1579.9c9.22,22.34,2.54,35.7-22,37.57-18.25,1.39-36.87,3-54.92,1-29.71-3.36-56-32-58.77-60.59-4.58-47.15,9.58-80.5,40-94.14,30.16-13.54,75.85-7,91.54,17.32,10.8,16.78,14.41,38.17,23.21,63.1H3801.65C3804.92,1593,3832.66,1602.48,3897.25,1579.9ZM3799.07,1505l4.83,9.7h62.15q2.64-4.26,5.27-8.52c-11.13-8.06-22.48-22.81-33.33-22.45C3824.8,1484.12,3812,1497.29,3799.07,1505Z"/><path class="cls-1" d="M1067,1614.81c-33.51,1.69-64.85,5.11-96.07,4.24-23.62-.66-42.15-14-43.24-39.63-1.64-38.6-.42-77.32-.42-118.49h37.87c-.86,17.23-2.32,33.88-2.36,50.54,0,19.06-2.44,39.31,3.25,56.74,3.33,10.18,20.07,21.4,31.49,22.23,15.63,1.13,31.1-6.52,30.13-29.18-1.37-32.25-.34-64.6-.34-99.86H1067Z"/><path class="cls-1" d="M2013.46,1541c-.13,54.53-24.76,79.31-78.4,78.85-52.64-.44-78.47-26.68-78.57-79.81-.11-57.36,24.86-81.93,83-81.69C1992,1458.52,2013.59,1482.69,2013.46,1541Zm-117.09-2.57c.11,35.72,13.78,54.4,39.73,54.32,25.65-.07,42.39-21.33,42.19-53.55-.2-32.38-16.82-53.36-42.09-53.14C1906.66,1486.28,1896.25,1500,1896.37,1538.39Z"/><path class="cls-1" d="M4084,1928.53c1.25,35.85-5,41.26-45.19,41.93-66.53,1.13-95.55-23.48-95.18-80.7.35-53.11,29.31-81.51,82.22-80.62,47.16.8,66.95,25.65,65.26,85.2H3985.71C3985,1943.85,4028.12,1956,4084,1928.53Zm-32.52-62.8,5.31-11.06c-12.57-7.09-25.26-19.9-37.66-19.62-11.82.26-23.33,14.17-35,22.08q2.4,4.3,4.79,8.6Z"/><path class="cls-1" d="M3325.19,1895H3223.87c3.82,50.59,31.07,59.56,97.34,34.93,3.75,30.15-4.41,38.47-39.73,40.52-66.14,3.84-101.25-24.13-100.34-79.94.93-56.94,33.58-85.78,92-81.25C3314.72,1812.44,3333.84,1841.88,3325.19,1895Zm-34.06-29.62,4.57-9.57c-12.83-7.37-25.81-20.74-38.44-20.41-12.38.32-24.4,14.58-36.58,22.72l5.24,7.26Z"/><path class="cls-1" d="M2239.88,1894.54h-106c3.6,50.48,33.67,60.42,97.32,34.8,8.66,24.16-.57,37.94-25.1,40-19.26,1.59-39.61,3.45-58-.92-31.92-7.58-51.28-27.88-54.12-63.54-2.75-34.33,1.33-65.12,32.24-84.55,27.34-17.19,60.55-20.52,85-.37,18.2,15,26,42.59,38.4,64.57Q2244.74,1889.51,2239.88,1894.54Zm-41.34-28.43,6.42-10.23c-11.72-7.63-23.65-21.59-35.08-21.19-12.47.44-24.47,14.17-36.68,22.11l5.54,9.31Z"/><path class="cls-1" d="M3772.12,1856.73c-21.43-23-21.43-23-83-11.74,3.06-11,4.65-26.63,8-27,28.36-3.26,58.2-9.22,85.27-3.45,25.9,5.51,25.21,33.51,24.51,56.92-.77,25.82,1.34,51.83-1.14,77.44-.74,7.67-11.88,19.18-19.61,20.4-19.06,3-39-.11-58.42,1.44-32.13,2.56-50.06-15.23-55.38-42.67-5.36-27.68,11.21-47.39,37.45-56.2C3728.61,1865.55,3748.45,1862.34,3772.12,1856.73Zm-3.42,31.73c-24.27,3.1-51.72-.42-55.15,31.21-.71,6.59,20.49,22.75,30.68,22C3778.73,1939.14,3769.72,1912.21,3768.7,1888.46Z"/><path class="cls-1" d="M2462.63,1970.47c-55.47.09-79.21-23.22-79.4-77.94-.2-57.74,23.48-83.19,77.59-83.39,56.35-.22,79.64,23.6,79.55,81.35C2540.28,1945.77,2516.36,1970.38,2462.63,1970.47Zm39.23-76.5c.35-40.63-11.08-57.27-39.41-57.36-27.45-.09-42.36,18.31-42.68,52.64-.31,34.07,14.49,53.37,41.38,53.93C2488.76,1943.75,2501.57,1928.27,2501.86,1894Z"/><path class="cls-1" d="M838.67,1503.66c-25.28-21.31-31-21.77-77.45-10.27-8.8-19.58-2-31.48,18.57-33.45,19.24-1.85,40.29-5,57.71.79,13,4.34,29.1,21.33,30.44,34.09,4,38.11,1.44,76.91,1.44,123.66-29,0-62.58,2.44-95.56-.84-22.83-2.27-33.1-21.13-35-44.06-2-24.77,7.79-42.66,30.83-50.91C790.52,1515.22,812.42,1510.74,838.67,1503.66Zm-5.31,31c-25.2,9.09-55.94,2.67-54.65,37.36.27,7.13,20.35,20,30.37,19.14C843.48,1588.33,833.71,1561.67,833.36,1534.7Z"/><path class="cls-1" d="M3346.88,1504.09c-26.38-30.56-52.22-14.1-76.6-10.58-4.8-26.58-3.14-30.94,19.45-33.83,17-2.18,34.69-2.83,51.61-.65,24.85,3.2,37.12,19.31,37,44.64-.16,36.26,0,72.53,0,110.78-24.3,1.67-51.18,4.26-78.12,5.12-24.54.79-45.34-7.08-51.68-33.8-7.38-31.1,4.16-54.4,33.25-64.92C3301.28,1513.79,3322.1,1510.31,3346.88,1504.09Zm-6.23,32c-24,7.32-54.68-.09-53.57,34.94.24,7.29,19.7,20.58,29.35,19.77C3349.5,1588,3344.2,1562.91,3340.65,1536.05Z"/><path class="cls-1" d="M1172.12,1895.5H1071c4.61,50.33,26.92,57.69,97.69,35.17,2.57,32-5.77,39-47.53,39.79-61.72,1.23-95.12-27.46-93.66-80.45,1.56-56.32,34.81-85.28,92.75-80.8C1162.14,1812.46,1179.88,1839.91,1172.12,1895.5Zm-34.44-30.09q2.37-5.39,4.73-10.79c-12.9-7.36-26-20.8-38.65-20.35-12.25.43-24,15.13-36,23.57l4.25,7.57Z"/><path class="cls-1" d="M1654.06,1813.32c0,47,.83,92.16-.9,137.24-.26,6.77-12,18-19.28,18.72-23.67,2.49-47.78.39-71.67,1.34-33,1.32-48.29-18.06-51-46.56-3-31-2.4-62.57-.09-93.65.56-7.41,14.19-13.85,21.81-20.73,5.83,8.11,16.1,15.92,16.67,24.38,1.86,27.42-1,55.13.22,82.64.86,19.94,14.52,28.16,33.63,25.18,18.58-2.9,32.07-10.35,30.25-33.61-1.76-22.51.9-45.35-.66-67.89C1611,1810.71,1624.26,1804.14,1654.06,1813.32Z"/><path class="cls-1" d="M3714.49,1493.93c-24.34-3.51-49.74-21.11-74.87,11.53,16.6,6.1,29.69,11.44,43.11,15.75,34.66,11.15,50.58,30.14,46.47,56.25s-25.91,41.49-60.21,42.29c-10.82.25-21.69.43-32.48-.28-25.07-1.64-34.91-13.2-23.3-40,26.45,10.15,54,26.76,81.35-11.05-18.18-7.72-32.82-15.31-48.31-20.19-27.19-8.57-43.95-23.61-37.47-54.21,6.14-29,28.59-35.18,54.1-35.58,11.9-.19,23.93-.7,35.69.67C3721.49,1461.73,3727.91,1472.86,3714.49,1493.93Z"/><path class="cls-1" d="M1938,1934.77c26.36,3,45.31,6.72,64.23,6.58,6.43,0,12.78-9.73,19.17-15-5.48-5.82-9.94-13.69-16.66-17-12.45-6.19-28.79-6.7-38.77-15.15-12.12-10.26-27.55-27-26.47-39.63,1.22-14.38,16.68-34.79,30.31-39.2,21.31-6.9,46.46-4.27,69.56-1.77,5.75.63,9.87,16.23,17.23,29.43-26.18-2.71-43-5.62-59.74-5.54-5.68,0-11.31,7.59-17,11.7,4.2,5.35,7.33,13,12.84,15.59,12.54,6,26.8,8.33,39.38,14.23,37.21,17.47,43,63.38,6.35,80.23-24.87,11.44-58,6.29-87.34,5.27C1946.63,1964.31,1942.8,1946.27,1938,1934.77Z"/><path class="cls-1" d="M1781.5,1931.87c30.28,5.17,47.88,10,65.57,10.33,7.28.16,14.77-9.17,22.16-14.19-5.58-6.77-9.87-15.84-17-19.81-12.09-6.72-29.32-6.91-38.27-15.91-11.42-11.46-23.45-29.3-22.68-43.73.66-12.47,16.79-30.35,29.74-34.51,19.62-6.3,42.76-5.19,63.69-2.2,7.94,1.13,13.88,16.19,20.74,24.9l-6.7,5.8c-16.64-2-33.3-5.32-49.92-5.15-6.64.06-13.2,7.92-19.8,12.23,5,5.82,8.89,13.83,15.21,17,12.43,6.21,28.83,6.67,38.75,15.15,11.62,9.94,25.45,26.22,24.84,39.13-.69,14.77-13.41,37.35-25.86,41.41-23.44,7.66-50.68,6.83-75.83,4.36C1798.49,1965.93,1792.53,1948.19,1781.5,1931.87Z"/><path class="cls-1" d="M6472.74,595c-.59,36.08-17.45,51.56-46,43.4-29.81-8.53-60-18.91-86.36-34.6-10.28-6.11-16.65-30.32-13.53-43.67,2.56-10.93,24.44-27.46,33.25-25.06,35.82,9.77,70.31,25,104.25,40.46C6470.41,578.27,6471.5,591.84,6472.74,595Z"/><path class="cls-1" d="M1818.69,1496.13c-25.4-11.4-55.08-20-68.67,8.6-9,18.87-8.76,49.91,1.07,68.13,17.21,31.87,48,16.88,75.54,4.66,5.14,21.24-1.31,34.18-20.89,40.28-35.19,11-77.36-2.17-95.85-29.71-17.35-25.84-14.11-77.5,6.52-104.15,18.1-23.38,62.11-36.18,91.68-23.18,8.92,3.92,13.17,18.42,19.56,28.07Z"/><path class="cls-1" d="M3126.19,1497.27c-34.59-11.09-61.81-20.6-80,10.16-13.11,22.16-15.14,45.72,1.57,66.57,21.25,26.52,47.43,18.68,73.32,4.66,12,26.54.5,38.25-23,40.23-32.7,2.77-65.54,3.07-86.28-29.65-20.19-31.86-18.78-75.2,3.1-105.62,17.15-23.85,76.86-36.6,101.09-19.45C3122.08,1468.51,3121.78,1481.9,3126.19,1497.27Z"/><path class="cls-1" d="M3612.52,1852.62c0,17.44-.1,41.19.07,64.93,0,5.32,1,10.62,1.69,17.21l36,10.1c-9.08,10.28-15,23.31-22.59,24.36-22.7,3.15-48.59,3.24-53.1-27.43-3.43-23.3.06-47.58-2.69-71-1.31-11.15-9.92-21.49-15.41-32.1-1.84-3.54-6.84-8.89-6.06-9.82,6.59-7.92,16.61-13.87,20.81-22.68,4.33-9.1-.34-24.31,5.58-30.34,6.9-7,21-7,33.92-10.61.73,9.23,1.43,15.54,1.67,21.86s.06,12.88.06,16.28l36.66,19.14Z"/><path class="cls-1" d="M2707.89,1812.49c-3.63,16.62-5.44,24.91-7,32.25-71.62-18.33-99.49,9.67-73.47,76.64,13.43,34.58,48.69,21.71,76.31,6.82,11.18,26.59-.08,37.12-23.26,41.27-51.3,9.18-87.47-10.2-99.09-53.59-12.48-46.58,6.23-91.66,47.77-102.3C2652.63,1807.56,2679,1812.49,2707.89,1812.49Z"/><path class="cls-1" d="M1122,1424.86l37.82-10.06c1.64,14.77,3,27.32,4.38,39.49,32.73,7,32.73,7,33.95,31.24-4.62,1.21-9.52,2.83-14.54,3.7-5.25.91-10.63,1.09-21.11,2.07,0,27.53-1.34,55.09,1.06,82.32.52,5.87,14.65,10.39,22.27,15.87,4.58,3.29,12,7.08,12.2,10.91.21,5-4.27,12.13-8.84,15.15-20.84,13.75-58.36,0-61.12-24.9-3.47-31.35-.84-63.38-.84-90.82-11-9.5-24-15.52-25.3-23.44-1.14-7,10.8-16.13,21.85-30.8C1123.76,1445.85,1123,1436.7,1122,1424.86Z"/><path class="cls-1" d="M2854.66,1847.41c-25.42-12.41-50.11-18.9-69,9.27-15.47,23-16.05,46.89,1,68.79,21.66,27.85,47.63,16.72,72.51,3.66,8.34,30.41,5.77,36.38-20.77,40-33,4.53-66.18,4-87.85-26.71-21-29.8-19.46-62.94-5.23-95,14.81-33.37,70.72-52.39,103.76-34.26,7.73,4.24,9.51,19.3,14,29.38Z"/><path class="cls-1" d="M3434.39,1385.18l36.93-7v236.1l-36.93,4.19Z"/><path class="cls-1" d="M3897.13,1731.12c0,57.32,0,114.15,0,171,0,11.88-2,24.29.76,35.52,7.82,31.94-7.61,35.84-37.85,29.54,0-39.06,0-78.59,0-118.12,0-25.91,3.17-52.32-.82-77.61C3854.12,1739.07,3866.78,1729,3897.13,1731.12Z"/><path class="cls-1" d="M2098.91,1378.7c0,74.92,1,147-1.3,219-.29,9.17-18.24,17.78-28,26.65l-8.79-6.57c-.72-9.15-2-18.3-2.06-27.46q-.3-84.94-.09-169.91C2058.69,1385.56,2058.74,1385.56,2098.91,1378.7Z"/><path class="cls-1" d="M3524.85,1464.84l36.4-6.6V1615l-36.4,2.9Z"/><path class="cls-1" d="M1707.51,1814.53l36.72-4.45c0,22.27-.12,43.06,0,63.85.15,20.42-2.06,41.3,1.5,61.14,5.55,31-5.51,40.1-38.26,32.09Z"/><path class="cls-1" d="M3164.76,1464l36-4.89v154.65l-36,5.53Z"/><path class="cls-1" d="M2902.36,1965.74V1815l39.46-6.19c0,50.41,1.43,97.63-1.39,144.59-.47,7.87-19.34,14.63-29.71,21.9Z"/><path class="cls-1" d="M2933.41,1399.76c-23.37,19-23.7,57.73-63.55,47C2881.59,1393.86,2882.58,1393,2933.41,1399.76Z"/><path class="cls-1" d="M3876.75,1400.76c-20.36,16.81-19.32,55.44-59.27,46.48C3823.92,1396.77,3830.21,1391.55,3876.75,1400.76Z"/><path class="cls-1" d="M1746.13,1739.08c.52,10.92.95,20.24,1.5,31.85h-41.05C1701.38,1735.89,1702.05,1735.3,1746.13,1739.08Z"/><path class="cls-1" d="M3566,1388.25v32.32h-41.67v-32.32Z"/><path class="cls-1" d="M3164.51,1385.88l36.53,1.79v33.56h-36.53Z"/><path class="cls-1" d="M2940.49,1740.63c.54,9,1.1,18.33,1.86,31l-34.93,1.53C2898.32,1737.58,2901.41,1734.53,2940.49,1740.63Z"/></g></g></svg>